<svg width="572" height="89" viewBox="0 0 572 89" fill="none" xmlns="http://www.w3.org/2000/svg">
<path d="M54.496 58.064C54.496 53.8827 55.0933 48.3787 56.288 41.552C57.4827 34.64 59.0613 28.7093 61.024 23.76C62.9867 18.7253 65.632 14.3733 68.96 10.704C75.36 3.62133 85.472 0.0799942 99.296 0.0799942C110.048 0.0799942 117.728 2.25599 122.336 6.60799C127.029 10.8747 129.376 17.2747 129.376 25.808C129.376 34.3413 128.139 42.5333 125.664 50.384C123.189 58.1493 120.203 64.1227 116.704 68.304L124.64 73.68L115.68 88.4L93.152 83.92L94.048 79.056L83.168 82C72.8427 82 65.4613 79.952 61.024 75.856C56.672 71.6747 54.496 65.744 54.496 58.064ZM88.8 62.032C92.128 62.032 94.6027 61.648 96.224 60.88C97.8453 60.0267 98.912 58.1493 99.424 55.248L105.312 21.968H95.072C91.8293 21.968 89.3973 22.3947 87.776 23.248C86.1547 24.016 85.088 25.8507 84.576 28.752L78.688 62.032H88.8ZM52.96 38.864L52.064 44.24L1.76 38.864H52.96ZM51.168 51.152C50.912 53.1147 50.784 54.9067 50.784 56.528L0.351999 51.152H51.168ZM56.032 26.576L54.496 31.824L4.832 26.576H56.032ZM50.912 63.44C51.0827 64.8907 51.424 66.6827 51.936 68.816L2.016 63.44H50.912ZM61.28 14.288C60.0853 16.5067 59.232 18.2133 58.72 19.408L10.848 14.288H61.28ZM55.52 75.856C56.7147 77.136 58.4213 78.7147 60.64 80.592L14.304 75.856H55.52ZM73.44 2C70.9653 3.536 69.0453 4.944 67.68 6.224L28.512 2H73.44ZM404.065 78.416C395.361 81.8293 386.486 83.536 377.441 83.536C368.396 83.536 361.953 81.7867 358.113 78.288C354.273 74.704 352.353 69.2 352.353 61.776C352.353 58.1067 352.95 52.8587 354.145 46.032C355.34 39.2053 357.174 33.36 359.649 28.496C365.025 18.1707 375.905 13.008 392.289 13.008C401.846 13.008 408.502 13.9467 412.257 15.824L405.729 33.616C400.353 32.4213 395.489 31.824 391.137 31.824C386.87 31.824 383.841 32.1227 382.049 32.72C380.257 33.3173 379.19 34.4693 378.849 36.176L373.473 65.616H379.361C381.494 65.616 383.116 65.4027 384.225 64.976C385.42 64.464 386.145 63.3973 386.401 61.776L387.297 56.784H382.049L384.609 42.192H410.465L404.065 78.416ZM349.281 51.152C348.94 53.7973 348.726 55.5893 348.641 56.528L298.209 51.152H349.281ZM351.713 38.864L350.561 44.24L300.513 38.864H351.713ZM348.513 63.44C348.513 64.8053 348.684 66.5973 349.025 68.816L298.721 63.44H348.513ZM356.193 26.576C355.169 28.7947 354.444 30.5013 354.017 31.696L305.633 26.576H356.193ZM351.201 75.856C352.225 77.904 353.334 79.4827 354.529 80.592L309.857 75.856H351.201ZM367.329 14.288C365.281 15.4827 363.532 16.8907 362.081 18.512L322.785 14.288H367.329Z" fill="#4285F4"/>
<path d="M197.527 13.008C206.743 13.008 213.314 14.8 217.239 18.384C221.164 21.8827 223.127 27.3867 223.127 34.896C223.127 38.5653 222.658 43.0027 221.719 48.208C219.586 60.496 215.831 69.456 210.455 75.088C205.079 80.72 196.631 83.536 185.111 83.536C176.066 83.536 169.623 81.7867 165.783 78.288C161.943 74.704 160.023 69.2 160.023 61.776C160.023 57.936 160.492 53.4133 161.431 48.208C163.564 35.92 167.276 27.0027 172.567 21.456C177.858 15.824 186.178 13.008 197.527 13.008ZM188.823 64.08C191.298 64.08 193.132 63.7813 194.327 63.184C195.607 62.5867 196.46 61.264 196.887 59.216L201.751 32.464H193.943C191.554 32.464 189.676 32.7627 188.311 33.36C187.031 33.9573 186.263 35.2373 186.007 37.2L181.271 64.08H188.823ZM156.951 51.152C156.61 53.7973 156.396 55.5893 156.311 56.528L105.879 51.152H156.951ZM159.383 38.864L158.231 44.24L108.183 38.864H159.383ZM156.183 63.44C156.183 64.8053 156.354 66.5973 156.695 68.816L106.391 63.44H156.183ZM163.863 26.576C162.839 28.7947 162.114 30.5013 161.687 31.696L113.303 26.576H163.863ZM158.871 75.856C159.895 77.904 161.004 79.4827 162.199 80.592L117.527 75.856H158.871ZM174.999 14.288C172.951 15.4827 171.202 16.8907 169.751 18.512L130.455 14.288H174.999ZM559.927 54.48H540.855L539.319 63.184H562.999L559.671 82H514.487L526.263 14.288H571.319L565.303 33.488H544.439L542.903 42.192H562.103L559.927 54.48ZM510.263 81.616L455.991 75.856H511.287L510.263 81.616ZM514.615 56.912L460.343 51.152H515.639L514.615 56.912ZM516.791 44.624L462.519 38.864H517.815L516.791 44.624ZM518.967 32.336L464.695 26.576H519.991L518.967 32.336ZM521.143 20.048L466.871 14.288H522.039L521.143 20.048ZM512.439 69.2L458.167 63.44H513.463L512.439 69.2Z" fill="#EA4335"/>
<path d="M294.652 13.008C303.868 13.008 310.439 14.8 314.364 18.384C318.289 21.8827 320.252 27.3867 320.252 34.896C320.252 38.5653 319.783 43.0027 318.844 48.208C316.711 60.496 312.956 69.456 307.58 75.088C302.204 80.72 293.756 83.536 282.236 83.536C273.191 83.536 266.748 81.7867 262.908 78.288C259.068 74.704 257.148 69.2 257.148 61.776C257.148 57.936 257.617 53.4133 258.556 48.208C260.689 35.92 264.401 27.0027 269.692 21.456C274.983 15.824 283.303 13.008 294.652 13.008ZM285.948 64.08C288.423 64.08 290.257 63.7813 291.452 63.184C292.732 62.5867 293.585 61.264 294.012 59.216L298.876 32.464H291.068C288.679 32.464 286.801 32.7627 285.436 33.36C284.156 33.9573 283.388 35.2373 283.132 37.2L278.396 64.08H285.948ZM254.076 51.152C253.735 53.7973 253.521 55.5893 253.436 56.528L203.004 51.152H254.076ZM256.508 38.864L255.356 44.24L205.308 38.864H256.508ZM253.308 63.44C253.308 64.8053 253.479 66.5973 253.82 68.816L203.516 63.44H253.308ZM260.988 26.576C259.964 28.7947 259.239 30.5013 258.812 31.696L210.428 26.576H260.988ZM255.996 75.856C257.02 77.904 258.129 79.4827 259.324 80.592L214.652 75.856H255.996ZM272.124 14.288C270.076 15.4827 268.327 16.8907 266.876 18.512L227.58 14.288H272.124Z" fill="#FBBC05"/>
<path d="M483.462 82H441.862L453.638 14.288H476.166L467.59 63.184H486.79L483.462 82ZM437.638 81.616L383.366 75.856H438.662L437.638 81.616ZM441.99 56.912L387.718 51.152H443.014L441.99 56.912ZM444.166 44.624L389.894 38.864H445.19L444.166 44.624ZM446.342 32.336L392.07 26.576H447.366L446.342 32.336ZM448.518 20.048L394.246 14.288H449.414L448.518 20.048ZM439.814 69.2L385.542 63.44H440.838L439.814 69.2Z" fill="#34A853"/>
</svg>
